<?xml version="1.0" encoding="UTF-8"?>
<mxfile host="app.diagrams.net" modified="2025-01-28T10:00:00.000Z" agent="5.0" etag="xxx" version="22.1.16" type="device">
  <diagram name="Workflow Diagram" id="workflow">
    <mxGraphModel dx="1422" dy="794" grid="1" gridSize="10" guides="1" tooltips="1" connect="1" arrows="1" fold="1" page="1" pageScale="1" pageWidth="1169" pageHeight="827" math="0" shadow="0">
      <root>
        <mxCell id="0" />
        <mxCell id="1" parent="0" />
        
        <!-- Title -->
        <mxCell id="title" value="ECommerce Workflow & Business Process" style="text;html=1;strokeColor=none;fillColor=none;align=center;verticalAlign=middle;whiteSpace=wrap;rounded=0;fontSize=24;fontStyle=1;" vertex="1" parent="1">
          <mxGeometry x="400" y="20" width="300" height="40" as="geometry" />
        </mxCell>

        <!-- Start -->
        <mxCell id="start" value="START" style="ellipse;whiteSpace=wrap;html=1;fillColor=#d5e8d4;strokeColor=#82b366;fontStyle=1;" vertex="1" parent="1">
          <mxGeometry x="500" y="80" width="100" height="60" as="geometry" />
        </mxCell>

        <!-- User Authentication -->
        <mxCell id="auth" value="User Authentication&#xa;(Login/Register)" style="rounded=1;whiteSpace=wrap;html=1;fillColor=#dae8fc;strokeColor=#6c8ebf;" vertex="1" parent="1">
          <mxGeometry x="480" y="180" width="140" height="60" as="geometry" />
        </mxCell>

        <!-- Role Check -->
        <mxCell id="role-check" value="Role Check&#xa;(Admin/User/Editor)" style="rhombus;whiteSpace=wrap;html=1;fillColor=#fff2cc;strokeColor=#d6b656;" vertex="1" parent="1">
          <mxGeometry x="490" y="280" width="120" height="80" as="geometry" />
        </mxCell>

        <!-- Product Management -->
        <mxCell id="product-mgmt" value="Product Management&#xa;(Ideals)" style="rounded=1;whiteSpace=wrap;html=1;fillColor=#d5e8d4;strokeColor=#82b366;" vertex="1" parent="1">
          <mxGeometry x="480" y="400" width="140" height="60" as="geometry" />
        </mxCell>

        <!-- Create Ideal -->
        <mxCell id="create-ideal" value="Create New Ideal" style="rounded=1;whiteSpace=wrap;html=1;fillColor=#ffe6cc;strokeColor=#d79b00;" vertex="1" parent="1">
          <mxGeometry x="200" y="400" width="120" height="60" as="geometry" />
        </mxCell>

        <!-- Upload Images -->
        <mxCell id="upload-images" value="Upload Images&#xa;(Banner, PNG)" style="rounded=1;whiteSpace=wrap;html=1;fillColor=#ffe6cc;strokeColor=#d79b00;" vertex="1" parent="1">
          <mxGeometry x="200" y="500" width="120" height="60" as="geometry" />
        </mxCell>

        <!-- AWS S3 Storage -->
        <mxCell id="aws-s3" value="AWS S3 Storage" style="rounded=1;whiteSpace=wrap;html=1;fillColor=#e1d5e7;strokeColor=#9673a6;" vertex="1" parent="1">
          <mxGeometry x="200" y="600" width="120" height="60" as="geometry" />
        </mxCell>

        <!-- Edit Ideal -->
        <mxCell id="edit-ideal" value="Edit Ideal" style="rounded=1;whiteSpace=wrap;html=1;fillColor=#ffe6cc;strokeColor=#d79b00;" vertex="1" parent="1">
          <mxGeometry x="800" y="400" width="120" height="60" as="geometry" />
        </mxCell>

        <!-- Delete Ideal -->
        <mxCell id="delete-ideal" value="Delete Ideal" style="rounded=1;whiteSpace=wrap;html=1;fillColor=#f8cecc;strokeColor=#b85450;" vertex="1" parent="1">
          <mxGeometry x="800" y="500" width="120" height="60" as="geometry" />
        </mxCell>

        <!-- Design Workflow -->
        <mxCell id="design-workflow" value="Design Workflow&#xa;(Kanban Board)" style="rounded=1;whiteSpace=wrap;html=1;fillColor=#fff2cc;strokeColor=#d6b656;" vertex="1" parent="1">
          <mxGeometry x="480" y="500" width="140" height="60" as="geometry" />
        </mxCell>

        <!-- Kanban Columns -->
        <mxCell id="new-column" value="NEW&#xa;(Status: 1)" style="rounded=1;whiteSpace=wrap;html=1;fillColor=#dae8fc;strokeColor=#6c8ebf;" vertex="1" parent="1">
          <mxGeometry x="300" y="620" width="80" height="60" as="geometry" />
        </mxCell>

        <mxCell id="processing-column" value="PROCESSING&#xa;(Status: 2)" style="rounded=1;whiteSpace=wrap;html=1;fillColor=#fff2cc;strokeColor=#d6b656;" vertex="1" parent="1">
          <mxGeometry x="420" y="620" width="80" height="60" as="geometry" />
        </mxCell>

        <mxCell id="submit-column" value="SUBMIT&#xa;(Status: 3)" style="rounded=1;whiteSpace=wrap;html=1;fillColor=#ffe6cc;strokeColor=#d79b00;" vertex="1" parent="1">
          <mxGeometry x="540" y="620" width="80" height="60" as="geometry" />
        </mxCell>

        <mxCell id="done-column" value="DONE&#xa;(Status: 4)" style="rounded=1;whiteSpace=wrap;html=1;fillColor=#d5e8d4;strokeColor=#82b366;" vertex="1" parent="1">
          <mxGeometry x="660" y="620" width="80" height="60" as="geometry" />
        </mxCell>

        <!-- Banner Generation -->
        <mxCell id="banner-gen" value="Banner Generation&#xa;(Automated)" style="rounded=1;whiteSpace=wrap;html=1;fillColor=#e1d5e7;strokeColor=#9673a6;" vertex="1" parent="1">
          <mxGeometry x="480" y="720" width="140" height="60" as="geometry" />
        </mxCell>

        <!-- Export Features -->
        <mxCell id="export-features" value="Export Features" style="rounded=1;whiteSpace=wrap;html=1;fillColor=#f8cecc;strokeColor=#b85450;" vertex="1" parent="1">
          <mxGeometry x="480" y="820" width="140" height="60" as="geometry" />
        </mxCell>

        <!-- Export Options -->
        <mxCell id="export-amazon" value="Amazon&#xa;Listing" style="rounded=1;whiteSpace=wrap;html=1;fillColor=#f8cecc;strokeColor=#b85450;" vertex="1" parent="1">
          <mxGeometry x="200" y="820" width="80" height="60" as="geometry" />
        </mxCell>

        <mxCell id="export-etsy" value="Etsy&#xa;Listing" style="rounded=1;whiteSpace=wrap;html=1;fillColor=#f8cecc;strokeColor=#b85450;" vertex="1" parent="1">
          <mxGeometry x="300" y="820" width="80" height="60" as="geometry" />
        </mxCell>

        <mxCell id="export-tiktok" value="TikTok&#xa;Listing" style="rounded=1;whiteSpace=wrap;html=1;fillColor=#f8cecc;strokeColor=#b85450;" vertex="1" parent="1">
          <mxGeometry x="680" y="820" width="80" height="60" as="geometry" />
        </mxCell>

        <mxCell id="export-ebay" value="eBay&#xa;Listing" style="rounded=1;whiteSpace=wrap;html=1;fillColor=#f8cecc;strokeColor=#b85450;" vertex="1" parent="1">
          <mxGeometry x="780" y="820" width="80" height="60" as="geometry" />
        </mxCell>

        <!-- Extensions Integration -->
        <mxCell id="extensions" value="Extensions Integration" style="rounded=1;whiteSpace=wrap;html=1;fillColor=#fff2cc;strokeColor=#d6b656;" vertex="1" parent="1">
          <mxGeometry x="800" y="600" width="120" height="60" as="geometry" />
        </mxCell>

        <!-- CEP Extension -->
        <mxCell id="cep-extension" value="CEP_PTS&#xa;(Adobe Extension)" style="rounded=1;whiteSpace=wrap;html=1;fillColor=#e1d5e7;strokeColor=#9673a6;" vertex="1" parent="1">
          <mxGeometry x="800" y="700" width="120" height="60" as="geometry" />
        </mxCell>

        <!-- Spy Crawl -->
        <mxCell id="spy-crawl" value="Spy Crawl Ideal&#xa;(Data Crawler)" style="rounded=1;whiteSpace=wrap;html=1;fillColor=#e1d5e7;strokeColor=#9673a6;" vertex="1" parent="1">
          <mxGeometry x="800" y="800" width="120" height="60" as="geometry" />
        </mxCell>

        <!-- Connections -->
        <mxCell id="conn1" value="" style="edgeStyle=orthogonalEdgeStyle;rounded=0;orthogonalLoop=1;jettySize=auto;html=1;strokeColor=#666666;strokeWidth=2;" edge="1" parent="1" source="start" target="auth">
          <mxGeometry relative="1" as="geometry" />
        </mxCell>
        
        <mxCell id="conn2" value="" style="edgeStyle=orthogonalEdgeStyle;rounded=0;orthogonalLoop=1;jettySize=auto;html=1;strokeColor=#666666;strokeWidth=2;" edge="1" parent="1" source="auth" target="role-check">
          <mxGeometry relative="1" as="geometry" />
        </mxCell>
        
        <mxCell id="conn3" value="" style="edgeStyle=orthogonalEdgeStyle;rounded=0;orthogonalLoop=1;jettySize=auto;html=1;strokeColor=#666666;strokeWidth=2;" edge="1" parent="1" source="role-check" target="product-mgmt">
          <mxGeometry relative="1" as="geometry" />
        </mxCell>
        
        <mxCell id="conn4" value="Create" style="edgeStyle=orthogonalEdgeStyle;rounded=0;orthogonalLoop=1;jettySize=auto;html=1;strokeColor=#666666;strokeWidth=2;" edge="1" parent="1" source="product-mgmt" target="create-ideal">
          <mxGeometry relative="1" as="geometry" />
        </mxCell>
        
        <mxCell id="conn5" value="" style="edgeStyle=orthogonalEdgeStyle;rounded=0;orthogonalLoop=1;jettySize=auto;html=1;strokeColor=#666666;strokeWidth=2;" edge="1" parent="1" source="create-ideal" target="upload-images">
          <mxGeometry relative="1" as="geometry" />
        </mxCell>
        
        <mxCell id="conn6" value="" style="edgeStyle=orthogonalEdgeStyle;rounded=0;orthogonalLoop=1;jettySize=auto;html=1;strokeColor=#666666;strokeWidth=2;" edge="1" parent="1" source="upload-images" target="aws-s3">
          <mxGeometry relative="1" as="geometry" />
        </mxCell>
        
        <mxCell id="conn7" value="Edit" style="edgeStyle=orthogonalEdgeStyle;rounded=0;orthogonalLoop=1;jettySize=auto;html=1;strokeColor=#666666;strokeWidth=2;" edge="1" parent="1" source="product-mgmt" target="edit-ideal">
          <mxGeometry relative="1" as="geometry" />
        </mxCell>
        
        <mxCell id="conn8" value="Delete" style="edgeStyle=orthogonalEdgeStyle;rounded=0;orthogonalLoop=1;jettySize=auto;html=1;strokeColor=#666666;strokeWidth=2;" edge="1" parent="1" source="edit-ideal" target="delete-ideal">
          <mxGeometry relative="1" as="geometry" />
        </mxCell>
        
        <mxCell id="conn9" value="Design" style="edgeStyle=orthogonalEdgeStyle;rounded=0;orthogonalLoop=1;jettySize=auto;html=1;strokeColor=#666666;strokeWidth=2;" edge="1" parent="1" source="product-mgmt" target="design-workflow">
          <mxGeometry relative="1" as="geometry" />
        </mxCell>
        
        <mxCell id="conn10" value="" style="edgeStyle=orthogonalEdgeStyle;rounded=0;orthogonalLoop=1;jettySize=auto;html=1;strokeColor=#666666;strokeWidth=2;" edge="1" parent="1" source="design-workflow" target="new-column">
          <mxGeometry relative="1" as="geometry" />
        </mxCell>
        
        <mxCell id="conn11" value="" style="edgeStyle=orthogonalEdgeStyle;rounded=0;orthogonalLoop=1;jettySize=auto;html=1;strokeColor=#666666;strokeWidth=2;" edge="1" parent="1" source="new-column" target="processing-column">
          <mxGeometry relative="1" as="geometry" />
        </mxCell>
        
        <mxCell id="conn12" value="" style="edgeStyle=orthogonalEdgeStyle;rounded=0;orthogonalLoop=1;jettySize=auto;html=1;strokeColor=#666666;strokeWidth=2;" edge="1" parent="1" source="processing-column" target="submit-column">
          <mxGeometry relative="1" as="geometry" />
        </mxCell>
        
        <mxCell id="conn13" value="" style="edgeStyle=orthogonalEdgeStyle;rounded=0;orthogonalLoop=1;jettySize=auto;html=1;strokeColor=#666666;strokeWidth=2;" edge="1" parent="1" source="submit-column" target="done-column">
          <mxGeometry relative="1" as="geometry" />
        </mxCell>
        
        <mxCell id="conn14" value="" style="edgeStyle=orthogonalEdgeStyle;rounded=0;orthogonalLoop=1;jettySize=auto;html=1;strokeColor=#666666;strokeWidth=2;" edge="1" parent="1" source="done-column" target="banner-gen">
          <mxGeometry relative="1" as="geometry" />
        </mxCell>
        
        <mxCell id="conn15" value="" style="edgeStyle=orthogonalEdgeStyle;rounded=0;orthogonalLoop=1;jettySize=auto;html=1;strokeColor=#666666;strokeWidth=2;" edge="1" parent="1" source="banner-gen" target="export-features">
          <mxGeometry relative="1" as="geometry" />
        </mxCell>
        
        <mxCell id="conn16" value="Amazon" style="edgeStyle=orthogonalEdgeStyle;rounded=0;orthogonalLoop=1;jettySize=auto;html=1;strokeColor=#666666;strokeWidth=2;" edge="1" parent="1" source="export-features" target="export-amazon">
          <mxGeometry relative="1" as="geometry" />
        </mxCell>
        
        <mxCell id="conn17" value="Etsy" style="edgeStyle=orthogonalEdgeStyle;rounded=0;orthogonalLoop=1;jettySize=auto;html=1;strokeColor=#666666;strokeWidth=2;" edge="1" parent="1" source="export-features" target="export-etsy">
          <mxGeometry relative="1" as="geometry" />
        </mxCell>
        
        <mxCell id="conn18" value="TikTok" style="edgeStyle=orthogonalEdgeStyle;rounded=0;orthogonalLoop=1;jettySize=auto;html=1;strokeColor=#666666;strokeWidth=2;" edge="1" parent="1" source="export-features" target="export-tiktok">
          <mxGeometry relative="1" as="geometry" />
        </mxCell>
        
        <mxCell id="conn19" value="eBay" style="edgeStyle=orthogonalEdgeStyle;rounded=0;orthogonalLoop=1;jettySize=auto;html=1;strokeColor=#666666;strokeWidth=2;" edge="1" parent="1" source="export-features" target="export-ebay">
          <mxGeometry relative="1" as="geometry" />
        </mxCell>
        
        <mxCell id="conn20" value="Extensions" style="edgeStyle=orthogonalEdgeStyle;rounded=0;orthogonalLoop=1;jettySize=auto;html=1;strokeColor=#666666;strokeWidth=2;" edge="1" parent="1" source="design-workflow" target="extensions">
          <mxGeometry relative="1" as="geometry" />
        </mxCell>
        
        <mxCell id="conn21" value="" style="edgeStyle=orthogonalEdgeStyle;rounded=0;orthogonalLoop=1;jettySize=auto;html=1;strokeColor=#666666;strokeWidth=2;" edge="1" parent="1" source="extensions" target="cep-extension">
          <mxGeometry relative="1" as="geometry" />
        </mxCell>
        
        <mxCell id="conn22" value="" style="edgeStyle=orthogonalEdgeStyle;rounded=0;orthogonalLoop=1;jettySize=auto;html=1;strokeColor=#666666;strokeWidth=2;" edge="1" parent="1" source="cep-extension" target="spy-crawl">
          <mxGeometry relative="1" as="geometry" />
        </mxCell>

        <!-- User Roles Section -->
        <mxCell id="roles-title" value="User Roles & Permissions" style="text;html=1;strokeColor=none;fillColor=none;align=center;verticalAlign=middle;whiteSpace=wrap;rounded=0;fontSize=16;fontStyle=1;" vertex="1" parent="1">
          <mxGeometry x="40" y="80" width="200" height="30" as="geometry" />
        </mxCell>
        
        <mxCell id="admin-role" value="ADMIN&#xa;• Full system access&#xa;• Manage users & teams&#xa;• View all data&#xa;• Export all listings" style="text;html=1;strokeColor=none;fillColor=#dae8fc;align=left;verticalAlign=top;whiteSpace=wrap;rounded=1;fontSize=11;" vertex="1" parent="1">
          <mxGeometry x="40" y="120" width="150" height="100" as="geometry" />
        </mxCell>
        
        <mxCell id="user-role" value="USER&#xa;• Create/edit ideals&#xa;• Upload images&#xa;• View own data&#xa;• Export own listings" style="text;html=1;strokeColor=none;fillColor=#d5e8d4;align=left;verticalAlign=top;whiteSpace=wrap;rounded=1;fontSize=11;" vertex="1" parent="1">
          <mxGeometry x="40" y="240" width="150" height="100" as="geometry" />
        </mxCell>
        
        <mxCell id="editor-role" value="EDITOR&#xa;• Edit existing ideals&#xa;• Manage designs&#xa;• Workflow management&#xa;• Limited admin access" style="text;html=1;strokeColor=none;fillColor=#ffe6cc;align=left;verticalAlign=top;whiteSpace=wrap;rounded=1;fontSize=11;" vertex="1" parent="1">
          <mxGeometry x="40" y="360" width="150" height="100" as="geometry" />
        </mxCell>
        
        <mxCell id="content-trainer" value="CONTENT_TRAINER&#xa;• Special workflow&#xa;• Pending approval&#xa;• Content review&#xa;• Quality control" style="text;html=1;strokeColor=none;fillColor=#fff2cc;align=left;verticalAlign=top;whiteSpace=wrap;rounded=1;fontSize=11;" vertex="1" parent="1">
          <mxGeometry x="40" y="480" width="150" height="100" as="geometry" />
        </mxCell>

        <!-- Process Features -->
        <mxCell id="process-title" value="Process Features" style="text;html=1;strokeColor=none;fillColor=none;align=center;verticalAlign=middle;whiteSpace=wrap;rounded=0;fontSize=16;fontStyle=1;" vertex="1" parent="1">
          <mxGeometry x="40" y="620" width="200" height="30" as="geometry" />
        </mxCell>
        
        <mxCell id="process-features" value="• Multi-market Support&#xa;  (Amazon, Etsy, TikTok, eBay)&#xa;&#xa;• Automated Banner Generation&#xa;  (AI-powered image processing)&#xa;&#xa;• Kanban Workflow Management&#xa;  (Drag & drop task management)&#xa;&#xa;• Team Collaboration&#xa;  (Notes, comments, sharing)&#xa;&#xa;• File Management&#xa;  (AWS S3 integration)&#xa;&#xa;• Export Capabilities&#xa;  (Excel, CSV formats)&#xa;&#xa;• Role-based Access Control&#xa;  (Granular permissions)&#xa;&#xa;• Audit Trail&#xa;  (Complete activity logging)" style="text;html=1;strokeColor=none;fillColor=#f8f9fa;align=left;verticalAlign=top;whiteSpace=wrap;rounded=1;fontSize=11;" vertex="1" parent="1">
          <mxGeometry x="40" y="660" width="200" height="200" as="geometry" />
        </mxCell>

      </root>
    </mxGraphModel>
  </diagram>
</mxfile> 